<svg width="155" height="148" viewBox="0 0 155 148" fill="none" xmlns="http://www.w3.org/2000/svg">
<g clip-path="url(#clip0)" filter="url(#filter0_d)">
<path d="M36.0332 140C46.6572 140 55.2697 138.684 55.2697 137.06C55.2697 135.436 46.6572 134.12 36.0332 134.12C25.4092 134.12 16.7968 135.436 16.7968 137.06C16.7968 138.684 25.4092 140 36.0332 140Z" fill="#E6E6E6"/>
<path d="M151 123.936L73.5857 108.761V38.0145L151 0V123.936Z" fill="#E6E6E6"/>
<path d="M150.812 7.42919L73.3978 42.2917V38.1913L150.812 0.240509V7.42919Z" fill="#6C63FF"/>
<path d="M76.9679 38.7229C76.9679 39.6664 76.6301 40.5842 76.2163 40.7716C75.8058 40.9574 75.4753 40.3529 75.4753 39.4227C75.4753 38.4924 75.8058 37.578 76.2163 37.379C76.6301 37.1784 76.9679 37.7794 76.9679 38.7229Z" fill="#E6E6E6"/>
<path d="M79.9743 37.311C79.9743 38.2284 79.6365 39.1242 79.2227 39.3106C78.812 39.4955 78.4814 38.9109 78.4814 38.0061C78.4814 37.1012 78.812 36.2087 79.2227 36.0113C79.6365 35.8123 79.9743 36.3936 79.9743 37.311Z" fill="#E6E6E6"/>
<path d="M82.9807 35.8967C82.9807 36.814 82.6429 37.7099 82.2291 37.8962C81.8184 38.0812 81.4877 37.4966 81.4877 36.5917C81.4877 35.6869 81.8184 34.7944 82.2291 34.5969C82.6429 34.398 82.9807 34.9793 82.9807 35.8967Z" fill="#E6E6E6"/>
<path opacity="0.2" d="M130.902 55.1705L83.1761 65.4437V52.3418L130.902 36.4662V55.1705Z" fill="black"/>
<path d="M129.955 54.2795L82.229 64.5528V51.4508L129.955 35.5751V54.2795Z" fill="white"/>
<path opacity="0.2" d="M91.0648 56.4233C91.0648 58.5342 90.2162 60.4497 89.1858 60.6978C88.1731 60.9417 87.3648 59.4779 87.3648 57.4322C87.3648 55.3865 88.1731 53.482 89.1858 53.1736C90.2162 52.8598 91.0648 54.3125 91.0648 56.4233Z" fill="black"/>
<path d="M90.4966 55.8887C90.4966 57.9995 89.648 59.9151 88.6176 60.1632C87.6049 60.407 86.7966 58.9433 86.7966 56.8976C86.7966 54.8519 87.6049 52.9474 88.6176 52.6389C89.648 52.3251 90.4966 53.7778 90.4966 55.8887Z" fill="#6C63FF"/>
<path d="M118.494 48.4023L95.5699 54.6303V52.4259L118.494 45.7935V48.4023Z" fill="#E6E6E6"/>
<path d="M113.232 54.7076L99.7036 57.9207V55.6433L113.232 52.1917V54.7076Z" fill="#E6E6E6"/>
<path opacity="0.2" d="M130.904 102.021L83.1776 98.2567V71.9659L130.904 64.4691V102.021Z" fill="black"/>
<path d="M129.767 101.13L82.0411 97.3657V71.0749L129.767 63.5781V101.13Z" fill="white"/>
<path opacity="0.2" d="M89.9359 78.5031L87.7022 78.6989V76.4016L89.9359 76.1617V78.5031Z" fill="black"/>
<path d="M89.5572 78.1467L87.3235 78.3425V76.045L89.5572 75.8053V78.1467Z" fill="#6C63FF"/>
<path d="M118.493 75.5554L91.8119 77.905V75.7669L118.493 72.9466V75.5554Z" fill="#E6E6E6"/>
<path d="M118.493 84.0738L91.8119 84.8863V82.7484L118.493 81.4651V84.0738Z" fill="#E6E6E6"/>
<path d="M118.493 92.8079L91.8119 92.0446V89.9065L118.493 90.1991V92.8079Z" fill="#E6E6E6"/>
<path d="M33.8665 64.538H28.7602V62.1848H33.0328L33.9707 62.675L33.8665 64.538Z" fill="#575A89"/>
<path d="M25.0084 129.351L25.217 132.881L28.3433 132.293L27.8223 128.763L25.0084 129.351Z" fill="#FFB9B9"/>
<path d="M39.8066 127.488C39.8066 127.488 39.9108 130.43 39.5982 131.214C39.2856 131.999 40.4319 132.391 40.4319 132.391H42.933L44.392 132.587V131.116C44.392 131.116 42.7246 128.665 42.7246 127.292C42.7246 125.919 39.8066 127.488 39.8066 127.488Z" fill="#FFB9B9"/>
<path d="M25.5296 132.293C25.5296 132.293 27.6138 131.366 28.3433 131.928C29.0728 132.489 31.7823 137.293 30.7402 137.588C30.7402 137.588 30.0107 138.764 27.5096 137.98C25.0085 137.195 25.0085 136.313 25.0085 136.313C25.0085 136.313 24.279 135.725 24.279 135.529C24.279 135.332 24.5916 133.567 24.5916 133.567C24.5916 133.567 24.8229 132.091 25.1762 132.192L25.5296 132.293Z" fill="#2F2E41"/>
<path d="M40.0151 130.822C40.0151 130.822 39.7024 130.528 39.494 130.822C39.2856 131.116 38.1392 134.842 39.1814 135.038C40.2235 135.234 41.7867 135.921 41.9951 135.725C42.1693 135.516 42.3097 135.285 42.4119 135.038C42.4119 135.038 44.0793 135.725 44.6004 136.313C45.1215 136.901 51.3742 138.176 51.1658 136.313C50.9574 134.45 47.831 132.881 47.831 132.881L44.392 130.724C44.392 130.724 43.0372 130.822 42.7246 131.41C42.4119 131.999 40.2235 131.901 40.0151 130.822Z" fill="#2F2E41"/>
<path d="M9.48085 92.8754C9.48085 92.8754 8.33451 94.2481 8.54294 94.3462C8.75136 94.4442 13.3367 95.4248 15.8378 94.8364C18.3389 94.2481 23.5495 94.3462 23.8621 93.6598C24.1748 92.9734 28.0306 84.4428 28.0306 84.4428L26.7801 77.9713L25.4253 76.3044L22.299 73.755L16.0462 84.7369L9.48085 92.8754Z" fill="#575A89"/>
<path opacity="0.1" d="M9.48085 92.8754C9.48085 92.8754 8.33451 94.2481 8.54294 94.3462C8.75136 94.4442 13.3367 95.4248 15.8378 94.8364C18.3389 94.2481 23.5495 94.3462 23.8621 93.6598C24.1748 92.9734 28.0306 84.4428 28.0306 84.4428L26.7801 77.9713L25.4253 76.3044L22.299 73.755L16.0462 84.7369L9.48085 92.8754Z" fill="black"/>
<path d="M22.7158 90.5221C22.7158 90.5221 21.2568 95.4247 22.7158 102.19C24.1748 108.956 22.82 110.427 23.1327 110.721C23.4453 111.015 23.5495 110.917 23.5495 111.211C23.5495 111.505 23.8621 112.878 23.5495 113.368C23.2369 113.859 23.2369 129.449 24.1748 129.841C25.1127 130.234 27.8222 131.214 28.3433 129.841C28.8643 128.469 28.4475 118.565 28.6559 118.075C28.8643 117.585 28.8643 116.408 28.8643 116.114C28.8643 115.82 29.4896 112.486 29.5938 111.604C29.698 110.721 30.0107 108.956 30.0107 108.956C30.0107 108.956 29.8023 101.994 30.4275 99.9352C31.0528 97.8761 31.2612 97.68 31.2612 97.68L36.2634 109.937C36.2634 109.937 35.8466 111.211 36.2634 111.604C36.6803 111.996 36.1592 111.898 36.5761 112.584C36.9929 113.27 37.4098 113.467 37.4098 113.859C37.4098 114.251 36.9929 114.251 37.2013 114.545C37.4097 114.839 37.7224 115.918 37.7224 115.918L37.2013 117.095C37.2013 117.095 37.514 119.546 37.9308 121.017C38.3477 122.487 38.3477 128.469 38.8687 128.567C39.3898 128.665 43.4541 129.743 43.4541 127.488C43.4541 125.233 43.1414 115.428 43.1414 115.428C43.1414 115.428 42.5162 113.957 42.5162 113.565C42.5162 113.172 42.4119 112.976 42.6204 112.78C42.8288 112.584 43.0372 112.192 42.7246 111.898C42.4119 111.604 42.5162 111.211 42.5162 110.819C42.4981 110.291 42.4284 109.766 42.3077 109.25C42.2035 108.858 40.2235 96.6014 40.2235 96.6014C40.2235 96.6014 40.6403 95.1306 40.2235 95.0325C39.8066 94.9345 39.8066 94.15 39.8066 93.7578C39.8066 93.3656 40.8488 88.463 39.5982 88.463C38.3477 88.463 22.7158 90.5221 22.7158 90.5221Z" fill="#2F2E41"/>
<path d="M8.95979 84.6389L7.50082 85.3253C7.50082 85.3253 2.2902 87.9727 4.58287 89.4435C6.87554 90.9143 9.16821 87.3844 9.16821 87.3844L11.3567 85.8155L8.95979 84.6389Z" fill="#FFB9B9"/>
<path d="M29.2812 57.7723C29.2812 57.7723 28.8643 62.2827 26.6759 63.2633C24.4874 64.2438 25.9464 71.5978 25.9464 71.5978L28.9685 74.3433L34.2834 72.8725L34.9086 69.5387L35.4297 66.1068L34.1792 64.3419C34.1792 64.3419 32.616 63.9497 33.2412 60.0275C33.8665 56.1054 29.2812 57.7723 29.2812 57.7723Z" fill="#FFB9B9"/>
<path d="M26.1548 64.8321C26.1548 64.8321 28.5517 72.2842 30.2191 72.2842C31.8865 72.2842 32.8244 70.5192 33.0328 68.362C33.2413 66.2049 34.596 63.8516 34.596 63.8516L37.8266 66.5971C37.8266 66.5971 40.4319 88.2668 40.2235 88.8552C40.0151 89.4435 31.8865 90.1299 28.6559 91.0123C25.4253 91.8948 22.1948 91.2084 22.1948 90.7182C22.1948 90.2815 23.848 86.5005 22.59 83.739C22.1305 82.7553 21.8198 81.7159 21.6669 80.651C21.4722 79.1973 21.2914 77.4381 21.4653 76.8927C21.7779 75.9121 23.4453 65.5185 23.4453 65.5185L26.1548 64.8321Z" fill="#6C63FF"/>
<path d="M27.9193 62.1267C27.9193 62.1267 26.0506 63.0672 25.2169 63.4594C24.3832 63.8516 19.2768 65.0282 19.1726 65.6165C19.0684 66.2049 19.9021 74.4413 19.4852 75.3238C19.0684 76.2063 14.8999 84.0506 14.8999 84.0506L14.6915 85.7175C14.6915 85.7175 7.81347 93.4637 8.64717 94.3462C9.48087 95.2286 12.6072 91.6007 12.6072 91.6007C12.6072 91.6007 19.5895 81.109 19.7979 80.7168C20.0063 80.3245 24.279 73.0686 24.9043 72.8725C25.5296 72.6764 26.9885 64.4399 27.197 64.0477C27.4054 63.6555 28.2248 61.9706 27.9193 62.1267Z" fill="#575A89"/>
<path d="M19.6937 65.5185H19.0684C19.0684 65.5185 16.7757 73.755 16.1504 74.8335C15.5252 75.9121 15.421 77.6771 15.3168 77.9713C15.2125 78.2654 14.7957 78.1674 14.6915 78.8537C14.5873 79.5401 13.5451 80.4226 12.7114 80.8148C11.8777 81.207 8.1261 84.5408 8.23031 84.6389C8.33452 84.7369 9.48085 88.1688 10.2103 88.1688C10.9398 88.1688 13.8578 84.835 14.1704 84.835C14.483 84.835 15.8378 83.6583 16.0462 83.5603C16.2547 83.4622 21.5695 74.2452 21.3611 71.99C21.1526 69.7348 19.6937 65.5185 19.6937 65.5185Z" fill="#575A89"/>
<path d="M45.696 90.9214L46.9796 91.8684C46.9796 91.8684 51.5223 95.4428 48.9634 96.4525C46.4044 97.4622 44.9083 93.5722 44.9083 93.5722L43.0975 91.6233L45.696 90.9214Z" fill="#FFB9B9"/>
<path d="M33.1139 62.2429C33.1139 62.2429 34.4918 62.871 35.1171 63.3613C35.7423 63.8516 40.5361 65.1263 40.5361 65.5185C40.5361 65.9107 40.015 71.99 40.015 71.99L40.7445 82.7759C40.7445 82.7759 41.7866 94.9345 41.9951 95.2286C42.2035 95.5228 42.5161 97.0916 41.9951 97.0916C41.474 97.0916 38.8687 94.3461 38.9729 92.9734C39.0771 91.6006 39.8066 88.4629 39.0771 87.6785C38.3476 86.8941 34.9086 73.755 34.9086 72.9705C34.9086 72.1861 33.4497 64.3418 33.5539 64.1457C33.6581 63.9496 33.1139 62.2429 33.1139 62.2429Z" fill="#575A89"/>
<path d="M38.9729 65.4204L40.5361 65.5185L44.392 80.3245C44.392 80.3245 44.7046 82.1875 44.8088 82.3837C44.913 82.5798 46.4762 91.1104 45.8509 91.4046C45.2257 91.6987 43.1414 92.7773 43.0372 92.0909C42.933 91.4046 41.8909 87.5805 40.8487 86.698C39.8066 85.8155 38.7645 70.6173 38.7645 70.6173L38.9729 65.4204Z" fill="#575A89"/>
<path d="M32.7202 60.4197C35.0799 60.4197 36.9929 58.6198 36.9929 56.3995C36.9929 54.1793 35.0799 52.3794 32.7202 52.3794C30.3604 52.3794 28.4475 54.1793 28.4475 56.3995C28.4475 58.6198 30.3604 60.4197 32.7202 60.4197Z" fill="#FFB9B9"/>
<path d="M29.7384 56.6932C30.0103 56.5618 30.368 56.6854 30.619 56.9714C30.7517 56.3736 31.031 55.8132 31.4345 55.3348C31.8379 54.8565 32.3545 54.4733 32.9431 54.2158C33.5317 53.9584 34.176 53.8338 34.8248 53.8519C35.4736 53.87 36.1089 54.0304 36.6803 54.3202V53.9115C36.6803 53.0111 36.3001 52.1475 35.6234 51.5108C34.9467 50.8741 34.0288 50.5164 33.0718 50.5164H32.2045C31.3142 50.5164 30.4327 50.6813 29.6102 51.0019C28.7877 51.3224 28.0404 51.7923 27.4109 52.3846C26.7814 52.9769 26.2821 53.68 25.9414 54.4539C25.6007 55.2278 25.4253 56.0572 25.4253 56.8948V58.0333C25.4252 59.0897 25.7362 60.1256 26.3237 61.0259C26.9112 61.9263 27.7523 62.6559 28.7537 63.1338L32.6558 61.1901C32.0907 60.8904 31.6076 60.4709 31.2449 59.9648C30.8823 59.4587 30.6502 58.88 30.5669 58.2746C30.2367 58.4103 29.7945 58.1907 29.5645 57.7693C29.3278 57.3358 29.4057 56.854 29.7384 56.6932Z" fill="#2F2E41"/>
</g>
<defs>
<filter id="filter0_d" x="0" y="0" width="155" height="148" filterUnits="userSpaceOnUse" color-interpolation-filters="sRGB">
<feFlood flood-opacity="0" result="BackgroundImageFix"/>
<feColorMatrix in="SourceAlpha" type="matrix" values="0 0 0 0 0 0 0 0 0 0 0 0 0 0 0 0 0 0 127 0"/>
<feOffset dy="4"/>
<feGaussianBlur stdDeviation="2"/>
<feColorMatrix type="matrix" values="0 0 0 0 0 0 0 0 0 0 0 0 0 0 0 0 0 0 0.25 0"/>
<feBlend mode="normal" in2="BackgroundImageFix" result="effect1_dropShadow"/>
<feBlend mode="normal" in="SourceGraphic" in2="effect1_dropShadow" result="shape"/>
</filter>
<clipPath id="clip0">
<rect width="147" height="140" fill="white" transform="translate(4)"/>
</clipPath>
</defs>
</svg>
