<svg width="1440" height="595" viewBox="0 0 1440 595" fill="none" xmlns="http://www.w3.org/2000/svg">
<path d="M-6.42859 159.746L54.3393 175.771C115.107 191.797 236.643 223.848 358.179 239.873C479.714 255.898 601.25 255.898 722.786 234.565C844.321 212.83 965.857 170.763 1087.39 154.438C1208.93 138.713 1330.46 148.729 1391.23 154.438L1452 159.746V320H1391.23C1330.46 320 1208.93 320 1087.39 320C965.857 320 844.321 320 722.786 320C601.25 320 479.714 320 358.179 320C236.643 320 115.107 320 54.3393 320H-6.42859V159.746Z" fill="#2D2D2D"/>
<path d="M-6.72858 453.225L54.3851 439.003C115.499 424.78 237.726 396.335 359.954 382.113C482.181 367.89 604.408 367.89 726.636 386.824C848.863 406.113 971.09 443.447 1093.32 457.937C1215.55 471.893 1337.77 463.003 1398.89 457.937L1460 453.225V311H1398.89C1337.77 311 1215.55 311 1093.32 311C971.09 311 848.863 311 726.636 311C604.408 311 482.181 311 359.954 311C237.726 311 115.499 311 54.3851 311H-6.72858V453.225Z" fill="#2D2D2D"/>
</svg>
